<svg width="16" height="16" viewBox="0 0 16 16" fill="none" xmlns="http://www.w3.org/2000/svg">
<path fill-rule="evenodd" clip-rule="evenodd" d="M12.9967 2.08868C13.1444 1.99982 13.3208 1.97164 13.4889 2.01005C13.6569 2.04846 13.8036 2.15047 13.898 2.29468L14.558 3.30135C14.644 3.43285 14.6809 3.59053 14.662 3.74654C14.6431 3.90255 14.5696 4.04686 14.4547 4.15401L14.4527 4.15668L14.4433 4.16535L14.4053 4.20068L14.2553 4.34401C13.4254 5.14912 12.6206 5.97974 11.842 6.83468C10.3773 8.44535 8.63801 10.5533 7.46735 12.5987C7.14068 13.1693 6.34268 13.292 5.86935 12.7993L1.54601 8.30735C1.48406 8.24295 1.43568 8.16675 1.40376 8.08328C1.37184 7.99982 1.35702 7.91078 1.36019 7.82148C1.36336 7.73217 1.38446 7.64441 1.42222 7.56342C1.45998 7.48243 1.51364 7.40985 1.58001 7.35001L2.88668 6.17135C3.00151 6.06782 3.14875 6.00742 3.3032 6.00049C3.45765 5.99356 3.60971 6.04052 3.73335 6.13335L5.93935 7.78735C9.38535 4.38935 11.3393 3.08535 12.9967 2.08868Z" fill="#FFFF5A"/>
</svg>
