<svg width="32" height="32" viewBox="0 0 32 32" fill="none" xmlns="http://www.w3.org/2000/svg">
<path d="M2.5009 27H29.5017C29.775 26.9991 30.043 26.9219 30.2767 26.7767C30.5104 26.6315 30.701 26.4237 30.828 26.1758C30.955 25.9279 31.0135 25.6492 30.9974 25.3698C30.9812 25.0903 30.8909 24.8207 30.7362 24.5899L17.2358 4.62096C16.6763 3.79301 15.3293 3.79301 14.7683 4.62096L1.26787 24.5899C1.1116 24.8202 1.01996 25.09 1.00291 25.3699C0.985855 25.6498 1.04404 25.9292 1.17114 26.1776C1.29824 26.426 1.48939 26.634 1.72383 26.779C1.95827 26.924 2.22703 27.0004 2.5009 27Z" fill="white"/>
</svg>
